<svg id="Capa_1" enable-background="new 0 0 512 512" height="512" viewBox="0 0 512 512" width="512" xmlns="http://www.w3.org/2000/svg"><path d="m305.346 326.805-52.377-41.747c-.362-.287-.673-.612-.96-.951l-26.197 26.197 45.169 35.163c1.283.999 1.778 2.71 1.225 4.24l-25.334 70.093c-3.36 9.295 1.452 19.556 10.748 22.915 9.34 3.376 19.572-1.498 22.915-10.748l30.695-84.921c2.641-7.309.263-15.486-5.884-20.241z" fill="#60b8fe"/><path d="m389.891 234.393h-57.015l-11.458-19.694-26.312 26.312 11.626 19.996c3.161 5.668 9.142 9.182 15.631 9.182h67.528c9.885 0 17.897-8.013 17.897-17.897 0-9.886-8.013-17.899-17.897-17.899z" fill="#60b8fe"/><g fill="#23a8fe"><path d="m252.009 284.107-26.197 26.197 16.273 12.668 25.926-25.926-15.041-11.988c-.363-.287-.674-.612-.961-.951z"/><path d="m295.105 241.011 10.641 18.3 26.316-26.316-10.645-18.296z"/><path d="m279.652 160.564-88.673 12.619c-4.996.711-9.459 3.498-12.291 7.674l-33.764 49.793c-5.548 8.181-3.412 19.31 4.769 24.858 8.235 5.583 19.349 3.355 24.858-4.769l29.018-42.795c.19-.28.49-.467.825-.515l41.136-5.854c1.013-.144 1.73.962 1.187 1.828l-43.155 68.734c-2.058 3.285-1.079 8.87-.586 12.772l92.226-92.226c13.12-11.79 1.918-34.607-15.55-32.119z"/></g><path d="m329.747 158.137 38.969-38.969c-3.398-14.213-17.254-25.862-32.508-25.862-17.852 0-32.323 14.472-32.323 32.323.001 15.255 11.649 29.111 25.862 32.508z" fill="#60b8fe"/><path d="m340.849 125.629c0-10.935 5.435-20.595 13.746-26.444-5.365-3.669-11.742-5.88-18.386-5.88-17.852 0-32.323 14.472-32.323 32.323 0 15.255 11.648 29.11 25.862 32.508l15.867-15.867c-2.995-4.979-4.766-10.701-4.766-16.64z" fill="#23a8fe"/><path d="m85.655 322.543c-2.366 9.597 3.496 19.296 13.093 21.662l35.393 9.538 29.575-29.575-56.4-14.717c-9.597-2.363-19.295 3.494-21.661 13.092z" fill="#23a8fe"/><path d="m437.019 74.981c-99.974-99.974-262.064-99.974-362.039 0-99.974 99.974-99.974 262.064 0 362.039 99.974 99.974 262.065 99.974 362.039 0 99.975-99.975 99.974-262.065 0-362.039zm-341.861 315.59c-3.524 3.524-9.331 3.128-12.381-.813-66.453-85.838-60.303-209.727 18.476-288.506 78.779-78.779 202.668-84.929 288.506-18.476 3.941 3.051 4.337 8.858.813 12.381zm27.084 38.653c-3.941-3.051-4.337-8.858-.813-12.382l295.413-295.413c3.524-3.524 9.331-3.128 12.382.813 66.453 85.838 60.303 209.727-18.476 288.506s-202.668 84.929-288.506 18.476z" fill="#ff656f"/><path d="m122.866 437.019c-13.696-13.696-25.503-28.564-35.446-44.273-1.773-.421-3.428-1.418-4.644-2.989-64.816-83.722-60.548-203.637 12.799-282.594 8.077-11.276 17.162-22.053 27.292-32.182 43.89-43.891 99.753-68.506 157.076-73.859-73.247-6.84-148.879 17.775-204.962 73.859-99.974 99.974-99.974 262.064 0 362.039 56.084 56.084 131.715 80.699 204.962 73.859-57.323-5.354-113.186-29.969-157.077-73.86z" fill="#ff4756"/></svg>